<mxfile host="app.diagrams.net" modified="2024-07-17T23:32:44.746Z" agent="Mozilla/5.0 (Windows NT 10.0; Win64; x64) AppleWebKit/537.36 (KHTML, like Gecko) Chrome/126.0.0.0 Safari/537.36" etag="onbRJogx2Df_7Yw5YQSh" version="24.5.5" type="device">
  <diagram name="Página-1" id="ljG-FVc2HmOihU_QYg2d">
    <mxGraphModel dx="1434" dy="756" grid="1" gridSize="10" guides="1" tooltips="1" connect="1" arrows="1" fold="1" page="1" pageScale="1" pageWidth="850" pageHeight="1100" math="0" shadow="0">
      <root>
        <mxCell id="0" />
        <mxCell id="1" parent="0" />
        <mxCell id="vkq2L6B_w49QmjE59n-9-1" value="&lt;svg viewBox=&quot;0 0 128 128&quot;&gt;&#xa;            &lt;g fill=&quot;#E434AA&quot;&gt;&lt;path d=&quot;M18.39 96.852l-4.6-2.657L65.04 5.434l4.597 2.656zm0 0&quot;&gt;&lt;/path&gt;&lt;path d=&quot;M12.734 87.105H115.23v5.31H12.734zm0 0&quot;&gt;&lt;/path&gt;&lt;path d=&quot;M66.031 119.688L14.766 90.09l2.656-4.602 51.266 29.602zm0 0M110.566 42.543L59.301 12.941l2.656-4.597 51.266 29.597zm0 0&quot;&gt;&lt;/path&gt;&lt;path d=&quot;M17.434 42.523l-2.657-4.601 51.27-29.598 2.656 4.598zm0 0&quot;&gt;&lt;/path&gt;&lt;path d=&quot;M109.621 96.852L58.375 8.09l4.598-2.656 51.25 88.761zm0 0M16.8 34.398h5.313v59.204h-5.312zm0 0&quot;&gt;&lt;/path&gt;&lt;path d=&quot;M105.887 34.398h5.312v59.204h-5.312zm0 0&quot;&gt;&lt;/path&gt;&lt;path d=&quot;M65.129 117.441l-2.32-4.02 44.586-25.745 2.32 4.02zm0 0&quot;&gt;&lt;/path&gt;&lt;path d=&quot;M118.238 95.328c-3.07 5.344-9.918 7.168-15.261 4.098-5.344-3.074-7.168-9.922-4.098-15.266 3.074-5.344 9.922-7.168 15.266-4.097 5.375 3.105 7.199 9.921 4.093 15.265M29.09 43.84c-3.074 5.344-9.922 7.168-15.266 4.097-5.344-3.074-7.168-9.921-4.097-15.265 3.074-5.344 9.921-7.168 15.265-4.098 5.344 3.106 7.168 9.922 4.098 15.266M9.762 95.328c-3.075-5.344-1.25-12.16 4.093-15.266 5.344-3.07 12.16-1.246 15.266 4.098 3.07 5.344 1.246 12.16-4.098 15.266-5.375 3.07-12.191 1.246-15.261-4.098M98.91 43.84c-3.07-5.344-1.246-12.16 4.098-15.266 5.344-3.07 12.16-1.246 15.265 4.098 3.07 5.344 1.247 12.16-4.097 15.266-5.344 3.07-12.192 1.246-15.266-4.098M64 126.656a11.158 11.158 0 01-11.168-11.168A11.158 11.158 0 0164 104.32a11.158 11.158 0 0111.168 11.168c0 6.145-4.992 11.168-11.168 11.168M64 23.68a11.158 11.158 0 01-11.168-11.168A11.158 11.158 0 0164 1.344a11.158 11.158 0 0111.168 11.168A11.158 11.158 0 0164 23.68&quot;&gt;&lt;/path&gt;&lt;/g&gt;&#xa;            &lt;/svg&gt;" style="rounded=0;whiteSpace=wrap;html=1;" vertex="1" parent="1">
          <mxGeometry x="70" y="180" width="620" height="230" as="geometry" />
        </mxCell>
        <mxCell id="vkq2L6B_w49QmjE59n-9-2" value="" style="verticalLabelPosition=bottom;html=1;verticalAlign=top;align=center;strokeColor=none;fillColor=#00994D;shape=mxgraph.azure.computer;pointerEvents=1;" vertex="1" parent="1">
          <mxGeometry x="110" y="330" width="50" height="45" as="geometry" />
        </mxCell>
        <mxCell id="vkq2L6B_w49QmjE59n-9-13" style="edgeStyle=orthogonalEdgeStyle;rounded=0;orthogonalLoop=1;jettySize=auto;html=1;exitX=1;exitY=0.5;exitDx=0;exitDy=0;entryX=0;entryY=0.5;entryDx=0;entryDy=0;dashed=1;strokeWidth=1;targetPerimeterSpacing=4;endSize=7;startSize=8;" edge="1" parent="1" source="vkq2L6B_w49QmjE59n-9-4" target="vkq2L6B_w49QmjE59n-9-10">
          <mxGeometry relative="1" as="geometry" />
        </mxCell>
        <mxCell id="vkq2L6B_w49QmjE59n-9-14" value="&lt;font data-font-src=&quot;https://fonts.googleapis.com/css?family=Victor+Mono&quot; face=&quot;Victor Mono&quot;&gt;Query&lt;/font&gt;" style="edgeLabel;html=1;align=center;verticalAlign=middle;resizable=0;points=[];" vertex="1" connectable="0" parent="vkq2L6B_w49QmjE59n-9-13">
          <mxGeometry x="-0.2348" relative="1" as="geometry">
            <mxPoint as="offset" />
          </mxGeometry>
        </mxCell>
        <mxCell id="vkq2L6B_w49QmjE59n-9-4" value="&lt;font face=&quot;Victor Mono&quot; data-font-src=&quot;https://fonts.googleapis.com/css?family=Anonimous&quot;&gt;Clients&lt;/font&gt;" style="swimlane;whiteSpace=wrap;html=1;" vertex="1" parent="1">
          <mxGeometry x="90" y="200" width="90" height="200" as="geometry" />
        </mxCell>
        <mxCell id="vkq2L6B_w49QmjE59n-9-3" value="" style="sketch=0;aspect=fixed;pointerEvents=1;shadow=0;dashed=0;html=1;strokeColor=none;labelPosition=center;verticalLabelPosition=bottom;verticalAlign=top;align=center;fillColor=#00994D;shape=mxgraph.mscae.enterprise.android_phone" vertex="1" parent="vkq2L6B_w49QmjE59n-9-4">
          <mxGeometry x="30" y="50" width="30" height="50" as="geometry" />
        </mxCell>
        <mxCell id="vkq2L6B_w49QmjE59n-9-5" value="&lt;font face=&quot;Victor Mono&quot;&gt;Apollo GraphOS&lt;/font&gt;" style="swimlane;whiteSpace=wrap;html=1;" vertex="1" parent="1">
          <mxGeometry x="260" y="200" width="125" height="200" as="geometry" />
        </mxCell>
        <mxCell id="vkq2L6B_w49QmjE59n-9-7" value="&lt;font face=&quot;Victor Mono&quot; data-font-src=&quot;https://fonts.googleapis.com/css?family=Victor+Mono&quot;&gt;Infrastructure&lt;/font&gt;" style="swimlane;whiteSpace=wrap;html=1;" vertex="1" parent="1">
          <mxGeometry x="470" y="200" width="200" height="200" as="geometry" />
        </mxCell>
        <mxCell id="vkq2L6B_w49QmjE59n-9-16" value="" style="rounded=1;whiteSpace=wrap;html=1;" vertex="1" parent="vkq2L6B_w49QmjE59n-9-7">
          <mxGeometry x="32" y="30" width="120" height="60" as="geometry" />
        </mxCell>
        <mxCell id="vkq2L6B_w49QmjE59n-9-12" value="" style="shape=image;verticalLabelPosition=bottom;labelBackgroundColor=default;verticalAlign=top;aspect=fixed;imageAspect=0;image=data:image/svg+xml,PHN2ZyB4bWxucz0iaHR0cDovL3d3dy53My5vcmcvMjAwMC9zdmciIHZpZXdCb3g9IjAgMCAxMjggMTI4Ij48cGF0aCBkPSJNODguMDM4IDQyLjgxMmMxLjYwNSA0LjY0MyAyLjc2MSA5LjM4MyAzLjE0MSAxNC4yOTYuNDcyIDYuMDk1LjI1NiAxMi4xNDctMS4wMjkgMTguMTQyLS4wMzUuMTY1LS4xMDkuMzItLjE2NC40OC0uNDAzLjAwMS0uODE0LS4wNDktMS4yMDguMDEyLTMuMzI5LjUyMy02LjY1NSAxLjA2NS05Ljk4MSAxLjYwNC0zLjQzOC41NTctNi44ODEgMS4wOTItMTAuMzEzIDEuNjg3LTEuMjE2LjIxLTIuNzIxLS4wNDEtMy4yMTIgMS42NDEtLjAxNC4wNDYtLjE1NC4wNTQtLjIzNS4wOGwuMTY2LTEwLjA1MS0uMTY5LTI0LjI1MiAxLjYwMi0uMjc1YzIuNjItLjQyOSA1LjI0LS44NjQgNy44NjItMS4yODEgMy4xMjktLjQ5NyA2LjI2MS0uOTggOS4zOTItMS40NjUgMS4zODEtLjIxNSAyLjc2NC0uNDEyIDQuMTQ4LS42MTh6IiBmaWxsPSIjNDM5OTM0IiBjbGlwLXJ1bGU9ImV2ZW5vZGQiIGZpbGwtcnVsZT0iZXZlbm9kZCIvPjxwYXRoIGQ9Ik02MS43MjkgMTEwLjA1NGMtMS42OS0xLjQ1My0zLjQzOS0yLjg0Mi01LjA1OS00LjM3LTguNzE3LTguMjIyLTE1LjA5My0xNy44OTktMTguMjMzLTI5LjU2Ni0uODY1LTMuMjExLTEuNDQyLTYuNDc0LTEuNjI3LTkuNzkyLS4xMy0yLjMyMi0uMzE4LTQuNjY1LS4xNTQtNi45NzUuNDM3LTYuMTQ0IDEuMzI1LTEyLjIyOSAzLjEyNy0xOC4xNDdsLjA5OS0uMTM4Yy4xNzUuMjMzLjQyNy40MzkuNTE2LjcwMiAxLjc1OSA1LjE4IDMuNTA1IDEwLjM2NCA1LjI0MiAxNS41NTEgNS40NTggMTYuMyAxMC45MDkgMzIuNjA0IDE2LjM3NiA0OC45LjEwNy4zMTguMzg0LjU3OS41ODMuODY2bC0uODcgMi45Njl6IiBmaWxsPSIjNDVBNTM4IiBjbGlwLXJ1bGU9ImV2ZW5vZGQiIGZpbGwtcnVsZT0iZXZlbm9kZCIvPjxwYXRoIGQ9Ik04OC4wMzggNDIuODEyYy0xLjM4NC4yMDYtMi43NjguNDAzLTQuMTQ5LjYxNi0zLjEzMS40ODUtNi4yNjMuOTY4LTkuMzkyIDEuNDY1LTIuNjIyLjQxNy01LjI0Mi44NTItNy44NjIgMS4yODFsLTEuNjAyLjI3NS0uMDEyLTEuMDQ1Yy0uMDUzLS44NTktLjE0NC0xLjcxNy0uMTU0LTIuNTc2LS4wNjktNS40NzgtLjExMi0xMC45NTYtLjE4LTE2LjQzNC0uMDQyLTMuNDI5LS4xMDUtNi44NTctLjE3NS0xMC4yODUtLjA0My0yLjEzLS4wODktNC4yNjEtLjE4NS02LjM4OC0uMDUyLTEuMTQzLS4yMzYtMi4yOC0uMzExLTMuNDIzLS4wNDItLjY1Ny4wMTYtMS4zMTkuMDI5LTEuOTc5LjgxNyAxLjU4MyAxLjYxNiAzLjE3OCAyLjQ1NiA0Ljc0OSAxLjMyNyAyLjQ4NCAzLjQ0MSA0LjMxNCA1LjM0NCA2LjMxMSA3LjUyMyA3Ljg5MiAxMi44NjQgMTcuMDY4IDE2LjE5MyAyNy40MzN6IiBmaWxsPSIjNDZBMDM3IiBjbGlwLXJ1bGU9ImV2ZW5vZGQiIGZpbGwtcnVsZT0iZXZlbm9kZCIvPjxwYXRoIGQ9Ik02NS4wMzYgODAuNzUzYy4wODEtLjAyNi4yMjItLjAzNC4yMzUtLjA4LjQ5MS0xLjY4MiAxLjk5Ni0xLjQzMSAzLjIxMi0xLjY0MSAzLjQzMi0uNTk0IDYuODc1LTEuMTMgMTAuMzEzLTEuNjg3IDMuMzI2LS41MzkgNi42NTItMS4wODEgOS45ODEtMS42MDQuMzk0LS4wNjIuODA1LS4wMTEgMS4yMDgtLjAxMi0uNjIyIDIuMjItMS4xMTIgNC40ODgtMS45MDEgNi42NDctLjg5NiAyLjQ0OS0xLjk4IDQuODM5LTMuMTMxIDcuMTgyYTQ5LjE0MiA0OS4xNDIgMCAwMS02LjM1MyA5Ljc2M2MtMS45MTkgMi4zMDgtNC4wNTggNC40NDEtNi4yMDIgNi41NDgtMS4xODUgMS4xNjUtMi41ODIgMi4xMTQtMy44ODIgMy4xNjFsLS4zMzctLjIzLTEuMjE0LTEuMDM4LTEuMjU2LTIuNzUzYTQxLjQwMiA0MS40MDIgMCAwMS0xLjM5NC05LjgzOGwuMDIzLS41NjEuMTcxLTIuNDI2Yy4wNTctLjgyOC4xMzMtMS42NTUuMTY4LTIuNDg1LjEyOS0yLjk4Mi4yNDEtNS45NjQuMzU5LTguOTQ2eiIgZmlsbD0iIzQwOTQzMyIgY2xpcC1ydWxlPSJldmVub2RkIiBmaWxsLXJ1bGU9ImV2ZW5vZGQiLz48cGF0aCBkPSJNNjUuMDM2IDgwLjc1M2MtLjExOCAyLjk4Mi0uMjMgNS45NjQtLjM1NyA4Ljk0Ny0uMDM1LjgzLS4xMTEgMS42NTctLjE2OCAyLjQ4NWwtLjc2NS4yODljLTEuNjk5LTUuMDAyLTMuMzk5LTkuOTUxLTUuMDYyLTE0LjkxMy0yLjc1LTguMjA5LTUuNDY3LTE2LjQzMS04LjIxMy0yNC42NDJhNDQ5OC44ODcgNDQ5OC44ODcgMCAwMC02LjctMTkuODY3Yy0uMTA1LS4zMS0uNDA3LS41NTItLjYxNy0uODI2bDQuODk2LTkuMDAyYy4xNjguMjkyLjM5LjU2NS40OTYuODc5YTYxNjcuNDc2IDYxNjcuNDc2IDAgMDE2Ljc2OCAyMC4xMThjMi45MTYgOC43MyA1LjgxNCAxNy40NjcgOC43MjggMjYuMTk4LjExNi4zNDkuMzA4LjY3MS40OTEgMS4wNjJsLjY3LS43OC0uMTY3IDEwLjA1MnoiIGZpbGw9IiM0RkFBNDEiIGNsaXAtcnVsZT0iZXZlbm9kZCIgZmlsbC1ydWxlPSJldmVub2RkIi8+PHBhdGggZD0iTTQzLjE1NSAzMi4yMjdjLjIxLjI3NC41MTEuNTE2LjYxNy44MjZhNDQ5OC44ODcgNDQ5OC44ODcgMCAwMTYuNyAxOS44NjdjMi43NDYgOC4yMTEgNS40NjMgMTYuNDMzIDguMjEzIDI0LjY0MiAxLjY2MiA0Ljk2MSAzLjM2MiA5LjkxMSA1LjA2MiAxNC45MTNsLjc2NS0uMjg5LS4xNzEgMi40MjYtLjE1NS41NTljLS4yNjYgMi42NTYtLjQ5IDUuMzE4LS44MTQgNy45NjgtLjE2MyAxLjMyOC0uNTA5IDIuNjMyLS43NzIgMy45NDctLjE5OC0uMjg3LS40NzYtLjU0OC0uNTgzLS44NjYtNS40NjctMTYuMjk3LTEwLjkxOC0zMi42LTE2LjM3Ni00OC45YTM4ODguOTcyIDM4ODguOTcyIDAgMDAtNS4yNDItMTUuNTUxYy0uMDg5LS4yNjMtLjM0LS40NjktLjUxNi0uNzAybDMuMjcyLTguODR6IiBmaWxsPSIjNEFBNzNDIiBjbGlwLXJ1bGU9ImV2ZW5vZGQiIGZpbGwtcnVsZT0iZXZlbm9kZCIvPjxwYXRoIGQ9Ik02NS4yMDIgNzAuNzAybC0uNjcuNzhjLS4xODMtLjM5MS0uMzc1LS43MTQtLjQ5MS0xLjA2Mi0yLjkxMy04LjczMS01LjgxMi0xNy40NjgtOC43MjgtMjYuMTk4YTYxNjcuNDc2IDYxNjcuNDc2IDAgMDAtNi43NjgtMjAuMTE4Yy0uMTA1LS4zMTQtLjMyNy0uNTg4LS40OTYtLjg3OWw2LjA1NS03Ljk2NWMuMTkxLjI1NS40NjMuNDgyLjU2Mi43NjkgMS42ODEgNC45MjEgMy4zNDcgOS44NDggNS4wMDMgMTQuNzc4IDEuNTQ3IDQuNjA0IDMuMDcxIDkuMjE1IDQuNjM2IDEzLjgxMy4xMDUuMzA4LjQ3LjUyNi43MTQuNzg2bC4wMTIgMS4wNDVjLjA1OCA4LjA4Mi4xMTUgMTYuMTY3LjE3MSAyNC4yNTF6IiBmaWxsPSIjNTdBRTQ3IiBjbGlwLXJ1bGU9ImV2ZW5vZGQiIGZpbGwtcnVsZT0iZXZlbm9kZCIvPjxwYXRoIGQ9Ik02NS4wMjEgNDUuNDA0Yy0uMjQ0LS4yNi0uNjA5LS40NzgtLjcxNC0uNzg2LTEuNTY1LTQuNTk4LTMuMDg5LTkuMjA5LTQuNjM2LTEzLjgxMy0xLjY1Ni00LjkzLTMuMzIyLTkuODU2LTUuMDAzLTE0Ljc3OC0uMDk5LS4yODctLjM3MS0uNTE0LS41NjItLjc2OSAxLjk2OS0xLjkyOCAzLjg3Ny0zLjkyNSA1LjkyNS01Ljc2NCAxLjgyMS0xLjYzNCAzLjI4NS0zLjM4NiAzLjM1Mi01Ljk2OC4wMDMtLjEwNy4wNTktLjIxNC4xNDUtLjUxNGwuNTE5IDEuMzA2Yy0uMDEzLjY2MS0uMDcyIDEuMzIyLS4wMjkgMS45NzkuMDc1IDEuMTQzLjI1OSAyLjI4LjMxMSAzLjQyMy4wOTYgMi4xMjcuMTQyIDQuMjU4LjE4NSA2LjM4OC4wNjkgMy40MjguMTMyIDYuODU2LjE3NSAxMC4yODUuMDY3IDUuNDc4LjExMSAxMC45NTYuMTggMTYuNDM0LjAwOC44NjEuMDk4IDEuNzE4LjE1MiAyLjU3N3oiIGZpbGw9IiM2MEIyNEYiIGNsaXAtcnVsZT0iZXZlbm9kZCIgZmlsbC1ydWxlPSJldmVub2RkIi8+PHBhdGggZD0iTTYyLjU5OCAxMDcuMDg1Yy4yNjMtMS4zMTUuNjA5LTIuNjIuNzcyLTMuOTQ3LjMyNS0yLjY0OS41NDgtNS4zMTIuODE0LTcuOTY4bC4wNjYtLjAxLjA2Ni4wMTFhNDEuNDAyIDQxLjQwMiAwIDAwMS4zOTQgOS44MzhjLS4xNzYuMjMyLS40MjUuNDM5LS41MTguNzAxLS43MjcgMi4wNS0xLjQxMiA0LjExNi0yLjE0MyA2LjE2Ni0uMS4yOC0uMzc4LjQ5OC0uNTc0Ljc0NGwtLjc0Ny0yLjU2Ni44Ny0yLjk2OXoiIGZpbGw9IiNBOUFBODgiIGNsaXAtcnVsZT0iZXZlbm9kZCIgZmlsbC1ydWxlPSJldmVub2RkIi8+PHBhdGggZD0iTTYyLjQ3NiAxMTIuNjIxYy4xOTYtLjI0Ni40NzUtLjQ2NC41NzQtLjc0NC43MzEtMi4wNSAxLjQxNy00LjExNSAyLjE0My02LjE2Ni4wOTMtLjI2Mi4zNDEtLjQ2OS41MTgtLjcwMWwxLjI1NSAyLjc1NGMtLjI0OC4zNTItLjU5LjY2OS0uNzI4IDEuMDYxbC0yLjQwNCA3LjA1OWMtLjA5OS4yODMtLjQzNy40ODMtLjY2My43MjJsLS42OTUtMy45ODV6IiBmaWxsPSIjQjZCNTk4IiBjbGlwLXJ1bGU9ImV2ZW5vZGQiIGZpbGwtcnVsZT0iZXZlbm9kZCIvPjxwYXRoIGQ9Ik02My4xNzEgMTE2LjYwNWMuMjI3LS4yMzguNTY0LS40MzkuNjYzLS43MjJsMi40MDQtNy4wNTljLjEzNy0uMzkxLjQ4LS43MDkuNzI4LTEuMDYxbDEuMjE1IDEuMDM3Yy0uNTg3LjU4LS45MTMgMS4yNS0uNzE3IDIuMDk3bC0uMzY5IDEuMjA4Yy0uMTY4LjIwNy0uNDExLjM4Ny0uNDk0LjYyNC0uODM5IDIuNDAzLTEuNjQgNC44MTktMi40ODUgNy4yMjItLjEwNy4zMDUtLjQwNC41NDQtLjYxNC44MTItLjEwOS0xLjM4Ny0uMjItMi43NzEtLjMzMS00LjE1OHoiIGZpbGw9IiNDMkMxQTciIGNsaXAtcnVsZT0iZXZlbm9kZCIgZmlsbC1ydWxlPSJldmVub2RkIi8+PHBhdGggZD0iTTYzLjUwMyAxMjAuNzYzYy4yMDktLjI2OS41MDYtLjUwOC42MTQtLjgxMi44NDUtMi40MDIgMS42NDYtNC44MTggMi40ODUtNy4yMjIuMDgzLS4yMzYuMzI1LS40MTcuNDk0LS42MjRsLS41MDkgNS41NDVjLS4xMzYuMTU3LS4zMzMuMjk0LS4zOTguNDc3LS41NzUgMS42MTQtMS4xMTcgMy4yNC0xLjY5NCA0Ljg1NC0uMTE5LjMzMy0uMzQ3LjYyNy0uNTI1LjkzOC0uMTU4LS4yMDctLjQ0MS0uNDA3LS40NTQtLjYyMy0uMDUxLS44NDEtLjAxNi0xLjY4OC0uMDEzLTIuNTMzeiIgZmlsbD0iI0NFQ0RCNyIgY2xpcC1ydWxlPSJldmVub2RkIiBmaWxsLXJ1bGU9ImV2ZW5vZGQiLz48cGF0aCBkPSJNNjMuOTY5IDEyMy45MTljLjE3OC0uMzEyLjQwNi0uNjA2LjUyNS0uOTM4LjU3OC0xLjYxMyAxLjExOS0zLjIzOSAxLjY5NC00Ljg1NC4wNjUtLjE4My4yNjMtLjMxOS4zOTgtLjQ3N2wuMDEyIDMuNjQtMS4yMTggMy4xMjQtMS40MTEtLjQ5NXoiIGZpbGw9IiNEQkRBQzciIGNsaXAtcnVsZT0iZXZlbm9kZCIgZmlsbC1ydWxlPSJldmVub2RkIi8+PHBhdGggZD0iTTY1LjM4IDEyNC40MTVsMS4yMTgtMy4xMjQuMjUxIDMuNjk2LTEuNDY5LS41NzJ6IiBmaWxsPSIjRUJFOURDIiBjbGlwLXJ1bGU9ImV2ZW5vZGQiIGZpbGwtcnVsZT0iZXZlbm9kZCIvPjxwYXRoIGQ9Ik02Ny40NjQgMTEwLjg5OGMtLjE5Ni0uODQ3LjEyOS0xLjUxOC43MTctMi4wOTdsLjMzNy4yMy0xLjA1NCAxLjg2N3oiIGZpbGw9IiNDRUNEQjciIGNsaXAtcnVsZT0iZXZlbm9kZCIgZmlsbC1ydWxlPSJldmVub2RkIi8+PHBhdGggZD0iTTY0LjMxNiA5NS4xNzJsLS4wNjYtLjAxMS0uMDY2LjAxLjE1NS0uNTU5LS4wMjMuNTZ6IiBmaWxsPSIjNEZBQTQxIiBjbGlwLXJ1bGU9ImV2ZW5vZGQiIGZpbGwtcnVsZT0iZXZlbm9kZCIvPjwvc3ZnPg==;" vertex="1" parent="vkq2L6B_w49QmjE59n-9-7">
          <mxGeometry x="76.75" y="100" width="40" height="40" as="geometry" />
        </mxCell>
        <mxCell id="vkq2L6B_w49QmjE59n-9-19" value="" style="shape=image;verticalLabelPosition=bottom;labelBackgroundColor=default;verticalAlign=top;aspect=fixed;imageAspect=0;image=data:image/svg+xml,PHN2ZyB4bWxucz0iaHR0cDovL3d3dy53My5vcmcvMjAwMC9zdmciIHZpZXdCb3g9IjAgMCAxMjggMTI4Ij48cGF0aCBkPSJNODguMDM4IDQyLjgxMmMxLjYwNSA0LjY0MyAyLjc2MSA5LjM4MyAzLjE0MSAxNC4yOTYuNDcyIDYuMDk1LjI1NiAxMi4xNDctMS4wMjkgMTguMTQyLS4wMzUuMTY1LS4xMDkuMzItLjE2NC40OC0uNDAzLjAwMS0uODE0LS4wNDktMS4yMDguMDEyLTMuMzI5LjUyMy02LjY1NSAxLjA2NS05Ljk4MSAxLjYwNC0zLjQzOC41NTctNi44ODEgMS4wOTItMTAuMzEzIDEuNjg3LTEuMjE2LjIxLTIuNzIxLS4wNDEtMy4yMTIgMS42NDEtLjAxNC4wNDYtLjE1NC4wNTQtLjIzNS4wOGwuMTY2LTEwLjA1MS0uMTY5LTI0LjI1MiAxLjYwMi0uMjc1YzIuNjItLjQyOSA1LjI0LS44NjQgNy44NjItMS4yODEgMy4xMjktLjQ5NyA2LjI2MS0uOTggOS4zOTItMS40NjUgMS4zODEtLjIxNSAyLjc2NC0uNDEyIDQuMTQ4LS42MTh6IiBmaWxsPSIjNDM5OTM0IiBjbGlwLXJ1bGU9ImV2ZW5vZGQiIGZpbGwtcnVsZT0iZXZlbm9kZCIvPjxwYXRoIGQ9Ik02MS43MjkgMTEwLjA1NGMtMS42OS0xLjQ1My0zLjQzOS0yLjg0Mi01LjA1OS00LjM3LTguNzE3LTguMjIyLTE1LjA5My0xNy44OTktMTguMjMzLTI5LjU2Ni0uODY1LTMuMjExLTEuNDQyLTYuNDc0LTEuNjI3LTkuNzkyLS4xMy0yLjMyMi0uMzE4LTQuNjY1LS4xNTQtNi45NzUuNDM3LTYuMTQ0IDEuMzI1LTEyLjIyOSAzLjEyNy0xOC4xNDdsLjA5OS0uMTM4Yy4xNzUuMjMzLjQyNy40MzkuNTE2LjcwMiAxLjc1OSA1LjE4IDMuNTA1IDEwLjM2NCA1LjI0MiAxNS41NTEgNS40NTggMTYuMyAxMC45MDkgMzIuNjA0IDE2LjM3NiA0OC45LjEwNy4zMTguMzg0LjU3OS41ODMuODY2bC0uODcgMi45Njl6IiBmaWxsPSIjNDVBNTM4IiBjbGlwLXJ1bGU9ImV2ZW5vZGQiIGZpbGwtcnVsZT0iZXZlbm9kZCIvPjxwYXRoIGQ9Ik04OC4wMzggNDIuODEyYy0xLjM4NC4yMDYtMi43NjguNDAzLTQuMTQ5LjYxNi0zLjEzMS40ODUtNi4yNjMuOTY4LTkuMzkyIDEuNDY1LTIuNjIyLjQxNy01LjI0Mi44NTItNy44NjIgMS4yODFsLTEuNjAyLjI3NS0uMDEyLTEuMDQ1Yy0uMDUzLS44NTktLjE0NC0xLjcxNy0uMTU0LTIuNTc2LS4wNjktNS40NzgtLjExMi0xMC45NTYtLjE4LTE2LjQzNC0uMDQyLTMuNDI5LS4xMDUtNi44NTctLjE3NS0xMC4yODUtLjA0My0yLjEzLS4wODktNC4yNjEtLjE4NS02LjM4OC0uMDUyLTEuMTQzLS4yMzYtMi4yOC0uMzExLTMuNDIzLS4wNDItLjY1Ny4wMTYtMS4zMTkuMDI5LTEuOTc5LjgxNyAxLjU4MyAxLjYxNiAzLjE3OCAyLjQ1NiA0Ljc0OSAxLjMyNyAyLjQ4NCAzLjQ0MSA0LjMxNCA1LjM0NCA2LjMxMSA3LjUyMyA3Ljg5MiAxMi44NjQgMTcuMDY4IDE2LjE5MyAyNy40MzN6IiBmaWxsPSIjNDZBMDM3IiBjbGlwLXJ1bGU9ImV2ZW5vZGQiIGZpbGwtcnVsZT0iZXZlbm9kZCIvPjxwYXRoIGQ9Ik02NS4wMzYgODAuNzUzYy4wODEtLjAyNi4yMjItLjAzNC4yMzUtLjA4LjQ5MS0xLjY4MiAxLjk5Ni0xLjQzMSAzLjIxMi0xLjY0MSAzLjQzMi0uNTk0IDYuODc1LTEuMTMgMTAuMzEzLTEuNjg3IDMuMzI2LS41MzkgNi42NTItMS4wODEgOS45ODEtMS42MDQuMzk0LS4wNjIuODA1LS4wMTEgMS4yMDgtLjAxMi0uNjIyIDIuMjItMS4xMTIgNC40ODgtMS45MDEgNi42NDctLjg5NiAyLjQ0OS0xLjk4IDQuODM5LTMuMTMxIDcuMTgyYTQ5LjE0MiA0OS4xNDIgMCAwMS02LjM1MyA5Ljc2M2MtMS45MTkgMi4zMDgtNC4wNTggNC40NDEtNi4yMDIgNi41NDgtMS4xODUgMS4xNjUtMi41ODIgMi4xMTQtMy44ODIgMy4xNjFsLS4zMzctLjIzLTEuMjE0LTEuMDM4LTEuMjU2LTIuNzUzYTQxLjQwMiA0MS40MDIgMCAwMS0xLjM5NC05LjgzOGwuMDIzLS41NjEuMTcxLTIuNDI2Yy4wNTctLjgyOC4xMzMtMS42NTUuMTY4LTIuNDg1LjEyOS0yLjk4Mi4yNDEtNS45NjQuMzU5LTguOTQ2eiIgZmlsbD0iIzQwOTQzMyIgY2xpcC1ydWxlPSJldmVub2RkIiBmaWxsLXJ1bGU9ImV2ZW5vZGQiLz48cGF0aCBkPSJNNjUuMDM2IDgwLjc1M2MtLjExOCAyLjk4Mi0uMjMgNS45NjQtLjM1NyA4Ljk0Ny0uMDM1LjgzLS4xMTEgMS42NTctLjE2OCAyLjQ4NWwtLjc2NS4yODljLTEuNjk5LTUuMDAyLTMuMzk5LTkuOTUxLTUuMDYyLTE0LjkxMy0yLjc1LTguMjA5LTUuNDY3LTE2LjQzMS04LjIxMy0yNC42NDJhNDQ5OC44ODcgNDQ5OC44ODcgMCAwMC02LjctMTkuODY3Yy0uMTA1LS4zMS0uNDA3LS41NTItLjYxNy0uODI2bDQuODk2LTkuMDAyYy4xNjguMjkyLjM5LjU2NS40OTYuODc5YTYxNjcuNDc2IDYxNjcuNDc2IDAgMDE2Ljc2OCAyMC4xMThjMi45MTYgOC43MyA1LjgxNCAxNy40NjcgOC43MjggMjYuMTk4LjExNi4zNDkuMzA4LjY3MS40OTEgMS4wNjJsLjY3LS43OC0uMTY3IDEwLjA1MnoiIGZpbGw9IiM0RkFBNDEiIGNsaXAtcnVsZT0iZXZlbm9kZCIgZmlsbC1ydWxlPSJldmVub2RkIi8+PHBhdGggZD0iTTQzLjE1NSAzMi4yMjdjLjIxLjI3NC41MTEuNTE2LjYxNy44MjZhNDQ5OC44ODcgNDQ5OC44ODcgMCAwMTYuNyAxOS44NjdjMi43NDYgOC4yMTEgNS40NjMgMTYuNDMzIDguMjEzIDI0LjY0MiAxLjY2MiA0Ljk2MSAzLjM2MiA5LjkxMSA1LjA2MiAxNC45MTNsLjc2NS0uMjg5LS4xNzEgMi40MjYtLjE1NS41NTljLS4yNjYgMi42NTYtLjQ5IDUuMzE4LS44MTQgNy45NjgtLjE2MyAxLjMyOC0uNTA5IDIuNjMyLS43NzIgMy45NDctLjE5OC0uMjg3LS40NzYtLjU0OC0uNTgzLS44NjYtNS40NjctMTYuMjk3LTEwLjkxOC0zMi42LTE2LjM3Ni00OC45YTM4ODguOTcyIDM4ODguOTcyIDAgMDAtNS4yNDItMTUuNTUxYy0uMDg5LS4yNjMtLjM0LS40NjktLjUxNi0uNzAybDMuMjcyLTguODR6IiBmaWxsPSIjNEFBNzNDIiBjbGlwLXJ1bGU9ImV2ZW5vZGQiIGZpbGwtcnVsZT0iZXZlbm9kZCIvPjxwYXRoIGQ9Ik02NS4yMDIgNzAuNzAybC0uNjcuNzhjLS4xODMtLjM5MS0uMzc1LS43MTQtLjQ5MS0xLjA2Mi0yLjkxMy04LjczMS01LjgxMi0xNy40NjgtOC43MjgtMjYuMTk4YTYxNjcuNDc2IDYxNjcuNDc2IDAgMDAtNi43NjgtMjAuMTE4Yy0uMTA1LS4zMTQtLjMyNy0uNTg4LS40OTYtLjg3OWw2LjA1NS03Ljk2NWMuMTkxLjI1NS40NjMuNDgyLjU2Mi43NjkgMS42ODEgNC45MjEgMy4zNDcgOS44NDggNS4wMDMgMTQuNzc4IDEuNTQ3IDQuNjA0IDMuMDcxIDkuMjE1IDQuNjM2IDEzLjgxMy4xMDUuMzA4LjQ3LjUyNi43MTQuNzg2bC4wMTIgMS4wNDVjLjA1OCA4LjA4Mi4xMTUgMTYuMTY3LjE3MSAyNC4yNTF6IiBmaWxsPSIjNTdBRTQ3IiBjbGlwLXJ1bGU9ImV2ZW5vZGQiIGZpbGwtcnVsZT0iZXZlbm9kZCIvPjxwYXRoIGQ9Ik02NS4wMjEgNDUuNDA0Yy0uMjQ0LS4yNi0uNjA5LS40NzgtLjcxNC0uNzg2LTEuNTY1LTQuNTk4LTMuMDg5LTkuMjA5LTQuNjM2LTEzLjgxMy0xLjY1Ni00LjkzLTMuMzIyLTkuODU2LTUuMDAzLTE0Ljc3OC0uMDk5LS4yODctLjM3MS0uNTE0LS41NjItLjc2OSAxLjk2OS0xLjkyOCAzLjg3Ny0zLjkyNSA1LjkyNS01Ljc2NCAxLjgyMS0xLjYzNCAzLjI4NS0zLjM4NiAzLjM1Mi01Ljk2OC4wMDMtLjEwNy4wNTktLjIxNC4xNDUtLjUxNGwuNTE5IDEuMzA2Yy0uMDEzLjY2MS0uMDcyIDEuMzIyLS4wMjkgMS45NzkuMDc1IDEuMTQzLjI1OSAyLjI4LjMxMSAzLjQyMy4wOTYgMi4xMjcuMTQyIDQuMjU4LjE4NSA2LjM4OC4wNjkgMy40MjguMTMyIDYuODU2LjE3NSAxMC4yODUuMDY3IDUuNDc4LjExMSAxMC45NTYuMTggMTYuNDM0LjAwOC44NjEuMDk4IDEuNzE4LjE1MiAyLjU3N3oiIGZpbGw9IiM2MEIyNEYiIGNsaXAtcnVsZT0iZXZlbm9kZCIgZmlsbC1ydWxlPSJldmVub2RkIi8+PHBhdGggZD0iTTYyLjU5OCAxMDcuMDg1Yy4yNjMtMS4zMTUuNjA5LTIuNjIuNzcyLTMuOTQ3LjMyNS0yLjY0OS41NDgtNS4zMTIuODE0LTcuOTY4bC4wNjYtLjAxLjA2Ni4wMTFhNDEuNDAyIDQxLjQwMiAwIDAwMS4zOTQgOS44MzhjLS4xNzYuMjMyLS40MjUuNDM5LS41MTguNzAxLS43MjcgMi4wNS0xLjQxMiA0LjExNi0yLjE0MyA2LjE2Ni0uMS4yOC0uMzc4LjQ5OC0uNTc0Ljc0NGwtLjc0Ny0yLjU2Ni44Ny0yLjk2OXoiIGZpbGw9IiNBOUFBODgiIGNsaXAtcnVsZT0iZXZlbm9kZCIgZmlsbC1ydWxlPSJldmVub2RkIi8+PHBhdGggZD0iTTYyLjQ3NiAxMTIuNjIxYy4xOTYtLjI0Ni40NzUtLjQ2NC41NzQtLjc0NC43MzEtMi4wNSAxLjQxNy00LjExNSAyLjE0My02LjE2Ni4wOTMtLjI2Mi4zNDEtLjQ2OS41MTgtLjcwMWwxLjI1NSAyLjc1NGMtLjI0OC4zNTItLjU5LjY2OS0uNzI4IDEuMDYxbC0yLjQwNCA3LjA1OWMtLjA5OS4yODMtLjQzNy40ODMtLjY2My43MjJsLS42OTUtMy45ODV6IiBmaWxsPSIjQjZCNTk4IiBjbGlwLXJ1bGU9ImV2ZW5vZGQiIGZpbGwtcnVsZT0iZXZlbm9kZCIvPjxwYXRoIGQ9Ik02My4xNzEgMTE2LjYwNWMuMjI3LS4yMzguNTY0LS40MzkuNjYzLS43MjJsMi40MDQtNy4wNTljLjEzNy0uMzkxLjQ4LS43MDkuNzI4LTEuMDYxbDEuMjE1IDEuMDM3Yy0uNTg3LjU4LS45MTMgMS4yNS0uNzE3IDIuMDk3bC0uMzY5IDEuMjA4Yy0uMTY4LjIwNy0uNDExLjM4Ny0uNDk0LjYyNC0uODM5IDIuNDAzLTEuNjQgNC44MTktMi40ODUgNy4yMjItLjEwNy4zMDUtLjQwNC41NDQtLjYxNC44MTItLjEwOS0xLjM4Ny0uMjItMi43NzEtLjMzMS00LjE1OHoiIGZpbGw9IiNDMkMxQTciIGNsaXAtcnVsZT0iZXZlbm9kZCIgZmlsbC1ydWxlPSJldmVub2RkIi8+PHBhdGggZD0iTTYzLjUwMyAxMjAuNzYzYy4yMDktLjI2OS41MDYtLjUwOC42MTQtLjgxMi44NDUtMi40MDIgMS42NDYtNC44MTggMi40ODUtNy4yMjIuMDgzLS4yMzYuMzI1LS40MTcuNDk0LS42MjRsLS41MDkgNS41NDVjLS4xMzYuMTU3LS4zMzMuMjk0LS4zOTguNDc3LS41NzUgMS42MTQtMS4xMTcgMy4yNC0xLjY5NCA0Ljg1NC0uMTE5LjMzMy0uMzQ3LjYyNy0uNTI1LjkzOC0uMTU4LS4yMDctLjQ0MS0uNDA3LS40NTQtLjYyMy0uMDUxLS44NDEtLjAxNi0xLjY4OC0uMDEzLTIuNTMzeiIgZmlsbD0iI0NFQ0RCNyIgY2xpcC1ydWxlPSJldmVub2RkIiBmaWxsLXJ1bGU9ImV2ZW5vZGQiLz48cGF0aCBkPSJNNjMuOTY5IDEyMy45MTljLjE3OC0uMzEyLjQwNi0uNjA2LjUyNS0uOTM4LjU3OC0xLjYxMyAxLjExOS0zLjIzOSAxLjY5NC00Ljg1NC4wNjUtLjE4My4yNjMtLjMxOS4zOTgtLjQ3N2wuMDEyIDMuNjQtMS4yMTggMy4xMjQtMS40MTEtLjQ5NXoiIGZpbGw9IiNEQkRBQzciIGNsaXAtcnVsZT0iZXZlbm9kZCIgZmlsbC1ydWxlPSJldmVub2RkIi8+PHBhdGggZD0iTTY1LjM4IDEyNC40MTVsMS4yMTgtMy4xMjQuMjUxIDMuNjk2LTEuNDY5LS41NzJ6IiBmaWxsPSIjRUJFOURDIiBjbGlwLXJ1bGU9ImV2ZW5vZGQiIGZpbGwtcnVsZT0iZXZlbm9kZCIvPjxwYXRoIGQ9Ik02Ny40NjQgMTEwLjg5OGMtLjE5Ni0uODQ3LjEyOS0xLjUxOC43MTctMi4wOTdsLjMzNy4yMy0xLjA1NCAxLjg2N3oiIGZpbGw9IiNDRUNEQjciIGNsaXAtcnVsZT0iZXZlbm9kZCIgZmlsbC1ydWxlPSJldmVub2RkIi8+PHBhdGggZD0iTTY0LjMxNiA5NS4xNzJsLS4wNjYtLjAxMS0uMDY2LjAxLjE1NS0uNTU5LS4wMjMuNTZ6IiBmaWxsPSIjNEZBQTQxIiBjbGlwLXJ1bGU9ImV2ZW5vZGQiIGZpbGwtcnVsZT0iZXZlbm9kZCIvPjwvc3ZnPg==;" vertex="1" parent="vkq2L6B_w49QmjE59n-9-7">
          <mxGeometry x="100" y="40" width="40" height="40" as="geometry" />
        </mxCell>
        <mxCell id="vkq2L6B_w49QmjE59n-9-21" style="edgeStyle=orthogonalEdgeStyle;rounded=0;orthogonalLoop=1;jettySize=auto;html=1;entryX=0;entryY=0.5;entryDx=0;entryDy=0;dashed=1;" edge="1" parent="1" source="vkq2L6B_w49QmjE59n-9-10" target="vkq2L6B_w49QmjE59n-9-16">
          <mxGeometry relative="1" as="geometry">
            <Array as="points">
              <mxPoint x="325" y="260" />
            </Array>
          </mxGeometry>
        </mxCell>
        <mxCell id="vkq2L6B_w49QmjE59n-9-23" value="Sub-query" style="edgeLabel;html=1;align=center;verticalAlign=middle;resizable=0;points=[];fontFamily=Victor Mono;fontSource=https%3A%2F%2Ffonts.googleapis.com%2Fcss%3Ffamily%3DVictor%2BMono;" vertex="1" connectable="0" parent="vkq2L6B_w49QmjE59n-9-21">
          <mxGeometry x="0.2604" y="-1" relative="1" as="geometry">
            <mxPoint y="-1" as="offset" />
          </mxGeometry>
        </mxCell>
        <mxCell id="vkq2L6B_w49QmjE59n-9-22" style="edgeStyle=orthogonalEdgeStyle;rounded=0;orthogonalLoop=1;jettySize=auto;html=1;entryX=0;entryY=0.5;entryDx=0;entryDy=0;dashed=1;" edge="1" parent="1" source="vkq2L6B_w49QmjE59n-9-10" target="vkq2L6B_w49QmjE59n-9-12">
          <mxGeometry relative="1" as="geometry">
            <Array as="points">
              <mxPoint x="390" y="300" />
              <mxPoint x="390" y="320" />
            </Array>
          </mxGeometry>
        </mxCell>
        <mxCell id="vkq2L6B_w49QmjE59n-9-24" value="&lt;span style=&quot;color: rgba(0, 0, 0, 0); font-family: monospace; font-size: 0px; text-align: start; background-color: rgb(251, 251, 251);&quot;&gt;%3CmxGraphModel%3E%3Croot%3E%3CmxCell%20id%3D%220%22%2F%3E%3CmxCell%20id%3D%221%22%20parent%3D%220%22%2F%3E%3CmxCell%20id%3D%222%22%20value%3D%22Sub-query%22%20style%3D%22edgeLabel%3Bhtml%3D1%3Balign%3Dcenter%3BverticalAlign%3Dmiddle%3Bresizable%3D0%3Bpoints%3D%5B%5D%3BfontFamily%3DVictor%20Mono%3BfontSource%3Dhttps%253A%252F%252Ffonts.googleapis.com%252Fcss%253Ffamily%253DVictor%252BMono%3B%22%20vertex%3D%221%22%20connectable%3D%220%22%20parent%3D%221%22%3E%3CmxGeometry%20x%3D%22431%22%20y%3D%22261%22%20as%3D%22geometry%22%2F%3E%3C%2FmxCell%3E%3C%2Froot%3E%3C%2FmxGraphModel%3E&lt;/span&gt;" style="edgeLabel;html=1;align=center;verticalAlign=middle;resizable=0;points=[];" vertex="1" connectable="0" parent="vkq2L6B_w49QmjE59n-9-22">
          <mxGeometry x="0.1528" relative="1" as="geometry">
            <mxPoint as="offset" />
          </mxGeometry>
        </mxCell>
        <mxCell id="vkq2L6B_w49QmjE59n-9-25" value="Sub-query" style="edgeLabel;html=1;align=center;verticalAlign=middle;resizable=0;points=[];fontFamily=Victor Mono;fontSource=https%3A%2F%2Ffonts.googleapis.com%2Fcss%3Ffamily%3DVictor%2BMono;" vertex="1" connectable="0" parent="vkq2L6B_w49QmjE59n-9-22">
          <mxGeometry x="0.246" y="-2" relative="1" as="geometry">
            <mxPoint x="-33" y="-2" as="offset" />
          </mxGeometry>
        </mxCell>
        <mxCell id="vkq2L6B_w49QmjE59n-9-10" value="" style="shape=image;verticalLabelPosition=bottom;labelBackgroundColor=default;verticalAlign=top;aspect=fixed;imageAspect=0;image=data:image/svg+xml,PHN2ZyB4bWxucz0iaHR0cDovL3d3dy53My5vcmcvMjAwMC9zdmciIHZpZXdCb3g9IjAgMCAxMjggMTI4Ij48ZyBmaWxsPSIjRTQzNEFBIj48cGF0aCBkPSJNMTguMzkgOTYuODUybC00LjYtMi42NTdMNjUuMDQgNS40MzRsNC41OTcgMi42NTZ6bTAgMCIvPjxwYXRoIGQ9Ik0xMi43MzQgODcuMTA1SDExNS4yM3Y1LjMxSDEyLjczNHptMCAwIi8+PHBhdGggZD0iTTY2LjAzMSAxMTkuNjg4TDE0Ljc2NiA5MC4wOWwyLjY1Ni00LjYwMiA1MS4yNjYgMjkuNjAyem0wIDBNMTEwLjU2NiA0Mi41NDNMNTkuMzAxIDEyLjk0MWwyLjY1Ni00LjU5NyA1MS4yNjYgMjkuNTk3em0wIDAiLz48cGF0aCBkPSJNMTcuNDM0IDQyLjUyM2wtMi42NTctNC42MDEgNTEuMjctMjkuNTk4IDIuNjU2IDQuNTk4em0wIDAiLz48cGF0aCBkPSJNMTA5LjYyMSA5Ni44NTJMNTguMzc1IDguMDlsNC41OTgtMi42NTYgNTEuMjUgODguNzYxem0wIDBNMTYuOCAzNC4zOThoNS4zMTN2NTkuMjA0aC01LjMxMnptMCAwIi8+PHBhdGggZD0iTTEwNS44ODcgMzQuMzk4aDUuMzEydjU5LjIwNGgtNS4zMTJ6bTAgMCIvPjxwYXRoIGQ9Ik02NS4xMjkgMTE3LjQ0MWwtMi4zMi00LjAyIDQ0LjU4Ni0yNS43NDUgMi4zMiA0LjAyem0wIDAiLz48cGF0aCBkPSJNMTE4LjIzOCA5NS4zMjhjLTMuMDcgNS4zNDQtOS45MTggNy4xNjgtMTUuMjYxIDQuMDk4LTUuMzQ0LTMuMDc0LTcuMTY4LTkuOTIyLTQuMDk4LTE1LjI2NiAzLjA3NC01LjM0NCA5LjkyMi03LjE2OCAxNS4yNjYtNC4wOTcgNS4zNzUgMy4xMDUgNy4xOTkgOS45MjEgNC4wOTMgMTUuMjY1TTI5LjA5IDQzLjg0Yy0zLjA3NCA1LjM0NC05LjkyMiA3LjE2OC0xNS4yNjYgNC4wOTctNS4zNDQtMy4wNzQtNy4xNjgtOS45MjEtNC4wOTctMTUuMjY1IDMuMDc0LTUuMzQ0IDkuOTIxLTcuMTY4IDE1LjI2NS00LjA5OCA1LjM0NCAzLjEwNiA3LjE2OCA5LjkyMiA0LjA5OCAxNS4yNjZNOS43NjIgOTUuMzI4Yy0zLjA3NS01LjM0NC0xLjI1LTEyLjE2IDQuMDkzLTE1LjI2NiA1LjM0NC0zLjA3IDEyLjE2LTEuMjQ2IDE1LjI2NiA0LjA5OCAzLjA3IDUuMzQ0IDEuMjQ2IDEyLjE2LTQuMDk4IDE1LjI2Ni01LjM3NSAzLjA3LTEyLjE5MSAxLjI0Ni0xNS4yNjEtNC4wOThNOTguOTEgNDMuODRjLTMuMDctNS4zNDQtMS4yNDYtMTIuMTYgNC4wOTgtMTUuMjY2IDUuMzQ0LTMuMDcgMTIuMTYtMS4yNDYgMTUuMjY1IDQuMDk4IDMuMDcgNS4zNDQgMS4yNDcgMTIuMTYtNC4wOTcgMTUuMjY2LTUuMzQ0IDMuMDctMTIuMTkyIDEuMjQ2LTE1LjI2Ni00LjA5OE02NCAxMjYuNjU2YTExLjE1OCAxMS4xNTggMCAwMS0xMS4xNjgtMTEuMTY4QTExLjE1OCAxMS4xNTggMCAwMTY0IDEwNC4zMmExMS4xNTggMTEuMTU4IDAgMDExMS4xNjggMTEuMTY4YzAgNi4xNDUtNC45OTIgMTEuMTY4LTExLjE2OCAxMS4xNjhNNjQgMjMuNjhhMTEuMTU4IDExLjE1OCAwIDAxLTExLjE2OC0xMS4xNjhBMTEuMTU4IDExLjE1OCAwIDAxNjQgMS4zNDRhMTEuMTU4IDExLjE1OCAwIDAxMTEuMTY4IDExLjE2OEExMS4xNTggMTEuMTU4IDAgMDE2NCAyMy42OCIvPjwvZz48L3N2Zz4=;" vertex="1" parent="1">
          <mxGeometry x="300" y="275" width="50" height="50" as="geometry" />
        </mxCell>
        <mxCell id="vkq2L6B_w49QmjE59n-9-20" style="edgeStyle=orthogonalEdgeStyle;rounded=0;orthogonalLoop=1;jettySize=auto;html=1;entryX=0;entryY=0.5;entryDx=0;entryDy=0;" edge="1" parent="1" source="vkq2L6B_w49QmjE59n-9-11" target="vkq2L6B_w49QmjE59n-9-19">
          <mxGeometry relative="1" as="geometry" />
        </mxCell>
        <mxCell id="vkq2L6B_w49QmjE59n-9-11" value="" style="shape=image;verticalLabelPosition=bottom;labelBackgroundColor=default;verticalAlign=top;aspect=fixed;imageAspect=0;image=data:image/svg+xml,PHN2ZyB4bWxucz0iaHR0cDovL3d3dy53My5vcmcvMjAwMC9zdmciIHZpZXdCb3g9IjAgMCAxMjggMTI4Ij48cGF0aCBkPSJNMTI2LjY3IDk4LjQ0Yy00LjU2IDEuMTYtNy4zOC4wNS05LjkxLTMuNzUtNS42OC04LjUxLTExLjk1LTE2LjYzLTE4LTI0LjktLjc4LTEuMDctMS41OS0yLjEyLTIuNi0zLjQ1Qzg5IDc2IDgxLjg1IDg1LjIgNzUuMTQgOTQuNzdjLTIuNCAzLjQyLTQuOTIgNC45MS05LjQgMy43bDI2LjkyLTM2LjEzTDY3LjYgMjkuNzFjNC4zMS0uODQgNy4yOS0uNDEgOS45MyAzLjQ1IDUuODMgOC41MiAxMi4yNiAxNi42MyAxOC42NyAyNS4yMSA2LjQ1LTguNTUgMTIuOC0xNi42NyAxOC44LTI1LjExIDIuNDEtMy40MiA1LTQuNzIgOS4zMy0zLjQ2LTMuMjggNC4zNS02LjQ5IDguNjMtOS43MiAxMi44OC00LjM2IDUuNzMtOC42NCAxMS41My0xMy4xNiAxNy4xNC0xLjYxIDItMS4zNSAzLjMuMDkgNS4xOUMxMDkuOSA3NiAxMTguMTYgODcuMSAxMjYuNjcgOTguNDR6TTEuMzMgNjEuNzRjLjcyLTMuNjEgMS4yLTcuMjkgMi4yLTEwLjgzIDYtMjEuNDMgMzAuNi0zMC4zNCA0Ny41LTE3LjA2QzYwLjkzIDQxLjY0IDYzLjM5IDUyLjYyIDYyLjkgNjVINy4xYy0uODQgMjIuMjEgMTUuMTUgMzUuNjIgMzUuNTMgMjguNzggNy4xNS0yLjQgMTEuMzYtOCAxMy40Ny0xNSAxLjA3LTMuNTEgMi44NC00LjA2IDYuMTQtMy4wNi0xLjY5IDguNzYtNS41MiAxNi4wOC0xMy41MiAyMC42Ni0xMiA2Ljg2LTI5LjEzIDQuNjQtMzguMTQtNC44OUM1LjI2IDg1Ljg5IDMgNzguOTIgMiA3MS4zOWMtLjE1LTEuMi0uNDYtMi4zOC0uNy0zLjU3cS4wMy0zLjA0LjAzLTYuMDh6bTUuODctMS40OWg1MC40M2MtLjMzLTE2LjA2LTEwLjMzLTI3LjQ3LTI0LTI3LjU3LTE1LS4xMi0yNS43OCAxMS4wMi0yNi40MyAyNy41N3oiLz48L3N2Zz4=;" vertex="1" parent="1">
          <mxGeometry x="506" y="240" width="40" height="40" as="geometry" />
        </mxCell>
        <mxCell id="vkq2L6B_w49QmjE59n-9-27" style="edgeStyle=orthogonalEdgeStyle;rounded=0;orthogonalLoop=1;jettySize=auto;html=1;entryX=0;entryY=0.5;entryDx=0;entryDy=0;dashed=1;exitX=0.5;exitY=1;exitDx=0;exitDy=0;" edge="1" parent="1" source="vkq2L6B_w49QmjE59n-9-10">
          <mxGeometry relative="1" as="geometry">
            <mxPoint x="349" y="310" as="sourcePoint" />
            <mxPoint x="545" y="370" as="targetPoint" />
            <Array as="points">
              <mxPoint x="325" y="370" />
            </Array>
          </mxGeometry>
        </mxCell>
        <mxCell id="vkq2L6B_w49QmjE59n-9-28" value="&lt;font face=&quot;Victor Mono&quot;&gt;Sub-query&lt;/font&gt;" style="edgeLabel;html=1;align=center;verticalAlign=middle;resizable=0;points=[];" vertex="1" connectable="0" parent="vkq2L6B_w49QmjE59n-9-27">
          <mxGeometry x="0.4787" y="-4" relative="1" as="geometry">
            <mxPoint x="-43" y="-3" as="offset" />
          </mxGeometry>
        </mxCell>
        <mxCell id="vkq2L6B_w49QmjE59n-9-29" value="" style="shape=image;verticalLabelPosition=bottom;labelBackgroundColor=default;verticalAlign=top;aspect=fixed;imageAspect=0;image=data:image/svg+xml,PHN2ZyB4bWxucz0iaHR0cDovL3d3dy53My5vcmcvMjAwMC9zdmciIHZpZXdCb3g9IjAgMCAxMjggMTI4Ij48cGF0aCBkPSJNOTMuODA5IDkyLjExMmMuNzg1LTYuNTMzLjU1LTcuNDkyIDUuNDE2LTYuNDMzbDEuMjM1LjEwOGMzLjc0Mi4xNyA4LjYzNy0uNjAyIDExLjUxMy0xLjkzOCA2LjE5MS0yLjg3MyA5Ljg2MS03LjY2OCAzLjc1OC02LjQwOS0xMy45MjQgMi44NzMtMTQuODgxLTEuODQyLTE0Ljg4MS0xLjg0MiAxNC43MDMtMjEuODE1IDIwLjg0OS00OS41MDggMTUuNTQzLTU2LjI4Ny0xNC40Ny0xOC40ODktMzkuNTE3LTkuNzQ2LTM5LjkzNi05LjUybC0uMTM0LjAyNWMtMi43NTEtLjU3MS01LjgzLS45MTItOS4yODktLjk2OC02LjMwMS0uMTA0LTExLjA4MiAxLjY1Mi0xNC43MDkgNC40MDIgMCAwLTQ0LjY4My0xOC40MDktNDIuNjA0IDIzLjE1MS40NDIgOC44NDEgMTIuNjcyIDY2Ljg5OCAyNy4yNiA0OS4zNjIgNS4zMzItNi40MTIgMTAuNDg0LTExLjgzNCAxMC40ODQtMTEuODM0IDIuNTU4IDEuNjk5IDUuNjIyIDIuNTY3IDguODM0IDIuMjU1bC4yNDktLjIxMmMtLjA3OC43OTYtLjA0NCAxLjU3NS4wOTkgMi40OTctMy43NTcgNC4xOTktMi42NTMgNC45MzYtMTAuMTY2IDYuNDgyLTcuNjAyIDEuNTY2LTMuMTM2IDQuMzU1LS4yMjEgNS4wODQgMy41MzUuODg0IDExLjcxMiAyLjEzNiAxNy4yMzgtNS41OThsLS4yMi44ODJjMS40NzQgMS4xOCAxLjM3NSA4LjQ3NyAxLjU4MyAxMy42OS4yMDkgNS4yMTQuNTU4IDEwLjA3OSAxLjYyMSAxMi45NDggMS4wNjMgMi44NjggMi4zMTcgMTAuMjU2IDEyLjE5MSA4LjE0IDguMjUyLTEuNzY0IDE0LjU2MS00LjMwOSAxNS4xMzYtMjcuOTg1Ii8+PHBhdGggZD0iTTc1LjQ1OCAxMjUuMjU2Yy00LjM2NyAwLTcuMjExLTEuNjg5LTguOTM4LTMuMzItMi42MDctMi40Ni0zLjY0MS01LjYyOS00LjI1OS03LjUyMmwtLjI2Ny0uNzljLTEuMjQ0LTMuMzU4LTEuNjY2LTguMTkzLTEuOTE2LTE0LjQxOS0uMDM4LS45MzUtLjA2NC0xLjg5OC0uMDkzLTIuOTE5LS4wMjEtLjc0Ny0uMDQ3LTEuNjg0LS4wODUtMi42NjRhMTguOCAxOC44IDAgMDEtNC45NjIgMS41NjhjLTMuMDc5LjUyNi02LjM4OS4zNTYtOS44NC0uNTA3LTIuNDM1LS42MDktNC45NjUtMS44NzEtNi40MDctMy44Mi00LjIwMyAzLjY4MS04LjIxMiAzLjE4Mi0xMC4zOTYgMi40NTMtMy44NTMtMS4yODUtNy4zMDEtNC44OTYtMTAuNTQyLTExLjAzNy0yLjMwOS00LjM3NS00LjU0Mi0xMC4wNzUtNi42MzgtMTYuOTQzLTMuNjUtMTEuOTYtNS45NjktMjQuNTU3LTYuMTc1LTI4LjY5M0M0LjI5MiAyMy42OTggNy43NzcgMTQuNDQgMTUuMjk2IDkuMTI5IDI3LjE1Ny43NTEgNDUuMTI4IDUuNjc4IDUxLjY4IDcuOTE1YzQuNDAyLTIuNjUzIDkuNTgxLTMuOTQ0IDE1LjQzMy0zLjg1MSAzLjE0My4wNTEgNi4xMzYuMzI3IDguOTE2LjgyMyAyLjktLjkxMiA4LjYyOC0yLjIyMSAxNS4xODUtMi4xMzkgMTIuMDgxLjE0NCAyMi4wOTIgNC44NTIgMjguOTQ5IDEzLjYxNSA0Ljg5NCA2LjI1MiAyLjQ3NCAxOS4zODEuNTk3IDI2LjY1MS0yLjY0MiAxMC4yMjYtNy4yNzEgMjEuMTAyLTEyLjk1NyAzMC41NyAxLjU0NC4wMTEgMy43ODEtLjE3NCA2Ljk2MS0uODMxIDYuMjc0LTEuMjk1IDguMTA5IDIuMDY5IDguNjA3IDMuNTc1IDEuOTk1IDYuMDQyLTYuNjc3IDEwLjYwOC05LjM4MiAxMS44NjQtMy40NjYgMS42MDktOS4xMTcgMi41ODktMTMuNzQ1IDIuMzc3bC0uMjAyLS4wMTMtMS4yMTYtLjEwNy0uMTIgMS4wMTQtLjExNi45OTFjLS4zMTEgMTEuOTk5LTIuMDI1IDE5LjU5OC01LjU1MiAyNC42MTktMy42OTcgNS4yNjQtOC44MzUgNi43MzktMTMuMzYxIDcuNzA5LTEuNTQ0LjMzLTIuOTQ3LjQ3NC00LjIxOS40NzR6bS05LjE5LTQzLjY3MWMyLjgxOSAyLjI1NiAzLjA2NiA2LjUwMSAzLjI4NyAxNC40MzQuMDI4Ljk5LjA1NCAxLjkyNy4wODkgMi44MDIuMTA2IDIuNjUuMzU1IDguODU1IDEuMzI3IDExLjQ3Ny4xMzcuMzcxLjI2Ljc0Ny4zOSAxLjE0NiAxLjA4MyAzLjMxNiAxLjYyNiA0Ljk3OSA2LjMwOSAzLjk3OCAzLjkzMS0uODQzIDUuOTUyLTEuNTk5IDcuNTM0LTMuODUxIDIuMjk5LTMuMjc0IDMuNTg1LTkuODYgMy44MjEtMTkuNTc1bDQuNzgzLjExNi00Ljc1LS41Ny4xNC0xLjE4NmMuNDU1LTMuOTEuNzgzLTYuNzM0IDMuMzk2LTguNjAyIDIuMDk3LTEuNDk4IDQuNDg2LTEuMzUzIDYuMzg5LTEuMDEtMi4wOTEtMS41OC0yLjY2OS0zLjQzMy0yLjgyMy00LjE5M2wtLjM5OS0xLjk2NSAxLjEyMS0xLjY2M2M2LjQ1Ny05LjU4IDExLjc4MS0yMS4zNTQgMTQuNjA5LTMyLjMwNCAyLjkwNi0xMS4yNTEgMi4wMi0xNy4yMjYgMS4xMzQtMTguMzU2LTExLjcyOS0xNC45ODctMzIuMDY4LTguNzk5LTM0LjE5Mi04LjA5N2wtLjM1OS4xOTQtMS44LjMzNS0uOTIyLS4xOTFjLTIuNTQyLS41MjgtNS4zNjYtLjgyLTguMzkzLS44NjktNC43NTYtLjA4LTguNTkzIDEuMDQ0LTExLjczOSAzLjQzMWwtMi4xODMgMS42NTUtMi41MzMtMS4wNDNjLTUuNDEyLTIuMjEzLTIxLjMwOC02LjY2Mi0yOS42OTYtLjcyMS00LjY1NiAzLjI5OC02Ljc3NyA5Ljc2LTYuMzA1IDE5LjIwNy4xNTYgMy4xMTkgMi4yNzUgMTQuOTI2IDUuNzcxIDI2LjM3NyA0LjgzMSAxNS44MjUgOS4yMjEgMjEuMDgyIDExLjA1NCAyMS42OTMuMzIuMTA4IDEuMTUtLjUzNyAxLjk3Ni0xLjUyOWEyNzAuNzA4IDI3MC43MDggMCAwMTEwLjY5NC0xMi4wN2wyLjc3LTIuOTE1IDMuMzQ5IDIuMjI1YzEuMzUuODk3IDIuODM5IDEuNDA2IDQuMzY4IDEuNTAybDcuOTg3LTYuODEyLTEuMTU3IDExLjgwOGMtLjAyNi4yNjUtLjAzOS42MjYuMDY1IDEuMjk2bC4zNDggMi4yMzgtMS41MSAxLjY4OC0uMTc0LjE5NiA0LjM4OCAyLjAyNSAxLjgzNi0yLjMwMXoiLz48cGF0aCBkPSJNMTE1LjczMSA3Ny40NGMtMTMuOTI1IDIuODczLTE0Ljg4Mi0xLjg0Mi0xNC44ODItMS44NDIgMTQuNzAzLTIxLjgxNiAyMC44NDktNDkuNTEgMTUuNTQ1LTU2LjI4N0MxMDEuOTI0LjgyMyA3Ni44NzUgOS41NjYgNzYuNDU3IDkuNzkzbC0uMTM1LjAyNGMtMi43NTEtLjU3MS01LjgzLS45MTEtOS4yOTEtLjk2Ny02LjMwMS0uMTAzLTExLjA4IDEuNjUyLTE0LjcwNyA0LjQwMiAwIDAtNDQuNjg0LTE4LjQwOC00Mi42MDYgMjMuMTUxLjQ0MiA4Ljg0MiAxMi42NzIgNjYuODk5IDI3LjI2IDQ5LjM2MyA1LjMzMi02LjQxMiAxMC40ODMtMTEuODM0IDEwLjQ4My0xMS44MzQgMi41NTkgMS42OTkgNS42MjIgMi41NjcgOC44MzMgMi4yNTVsLjI1LS4yMTJjLS4wNzguNzk2LS4wNDIgMS41NzUuMSAyLjQ5Ny0zLjc1OCA0LjE5OS0yLjY1NCA0LjkzNi0xMC4xNjcgNi40ODItNy42MDIgMS41NjYtMy4xMzYgNC4zNTUtLjIyIDUuMDg0IDMuNTM0Ljg4NCAxMS43MTIgMi4xMzYgMTcuMjM3LTUuNTk4bC0uMjIxLjg4MmMxLjQ3MyAxLjE4IDIuNTA3IDcuNjcyIDIuMzM0IDEzLjU1Ny0uMTc0IDUuODg1LS4yOSA5LjkyNi44NzEgMTMuMDgyIDEuMTYgMy4xNTYgMi4zMTYgMTAuMjU2IDEyLjE5MiA4LjE0IDguMjUyLTEuNzY4IDEyLjUyOC02LjM1MSAxMy4xMjQtMTMuOTk1LjQyMi01LjQzNSAxLjM3Ny00LjYzMSAxLjQzOC05LjQ5bC43NjctMi4zYy44ODQtNy4zNjcuMTQtOS43NDMgNS4yMjUtOC42MzhsMS4yMzUuMTA4YzMuNzQyLjE3IDguNjM5LS42MDIgMTEuNTE0LTEuOTM4IDYuMTktMi44NzEgOS44NjEtNy42NjcgMy43NTgtNi40MDh6IiBmaWxsPSIjMzM2NzkxIi8+PHBhdGggZD0iTTc1Ljk1NyAxMjIuMzA3Yy04LjIzMiAwLTEwLjg0LTYuNTE5LTExLjkwNy05LjE4NS0xLjU2Mi0zLjkwNy0xLjg5OS0xOS4wNjktMS41NTEtMzEuNTAzYTEuNTkgMS41OSAwIDAxMS42NC0xLjU1IDEuNTk0IDEuNTk0IDAgMDExLjU1IDEuNjM5Yy0uNDAxIDE0LjM0MS4xNjggMjcuMzM3IDEuMzI0IDMwLjIyOSAxLjgwNCA0LjUwOSA0LjU0IDguNDUzIDEyLjI3NSA2Ljc5NiA3LjM0My0xLjU3NSAxMC4wOTMtNC4zNTkgMTEuMzE4LTExLjQ2Ljk0LTUuNDQ5IDIuNzk5LTIwLjk1MSAzLjAyOC0yNC4wMWExLjU5MyAxLjU5MyAwIDAxMS43MS0xLjQ3MiAxLjU5NyAxLjU5NyAwIDAxMS40NzIgMS43MWMtLjIzOSAzLjE4NS0yLjA4OSAxOC42NTctMy4wNjUgMjQuMzE1LTEuNDQ2IDguMzg3LTUuMTg1IDEyLjE5MS0xMy43OTQgMTQuMDM3LTEuNDYzLjMxMy0yLjc5Mi40NTMtNCAuNDU0ek0zMS4zMjEgOTAuNDY2YTYuNzEgNi43MSAwIDAxLTIuMTE2LS4zNWMtNS4zNDctMS43ODQtMTAuNDQtMTAuNDkyLTE1LjEzOC0yNS44ODUtMy41NzYtMTEuNzE3LTUuODQyLTIzLjk0Ny02LjA0MS0yNy45MjItLjU4OS0xMS43ODQgMi40NDUtMjAuMTIxIDkuMDItMjQuNzc4IDEzLjAwNy05LjIxNiAzNC44ODgtLjQ0IDM1LjgxMy0uMDYyYTEuNTk2IDEuNTk2IDAgMDEtMS4yMDcgMi45NTVjLS4yMTEtLjA4Ni0yMS4xOTMtOC40OTItMzIuNzY4LS4yODUtNS42MjIgMy45ODYtOC4yMDMgMTEuMzkyLTcuNjcyIDIyLjAxMS4xNjcgMy4zNDkgMi4yODQgMTUuMjg1IDUuOTA2IDI3LjE0OSA0LjE5NCAxMy43NDIgOC45NjcgMjIuNDEzIDEzLjA5NiAyMy43OS42NDguMjE2IDIuNjIuODczIDUuNDM5LTIuNTE3QTI0NS4yNzIgMjQ1LjI3MiAwIDAxNDUuODggNzMuMDQ2YTEuNTk2IDEuNTk2IDAgMDEyLjMwNCAyLjIwOGMtLjA0OC4wNS00Ljg0NyA1LjA2Ny0xMC4wNzcgMTEuMzU5LTIuNDc3IDIuOTc5LTQuODUxIDMuODUzLTYuNzg2IDMuODUzem02OS40MjktMTMuNDQ1YTEuNTk2IDEuNTk2IDAgMDEtMS4zMjItMi40ODdjMTQuODYzLTIyLjA1NSAyMC4wOC00OC43MDQgMTUuNjEyLTU0LjQxNC01LjYyNC03LjE4Ni0xMy41NjUtMTAuOTM5LTIzLjYwNC0xMS4xNTYtNy40MzMtLjE2LTEzLjM0MSAxLjczOC0xNC4zMDcgMi4wNjlsLS4yNDMuMDk5Yy0uOTcxLjMwNS0xLjcxNi0uMjI3LTEuOTk3LS44NDlhMS42IDEuNiAwIDAxLjYzMS0yLjAyNWMuMDQ2LS4wMjcuMTkyLS4wODkuNDI5LS4xNzZsLS4wMjEuMDA2LjAyMS0uMDA3YzEuNjQxLS42MDEgNy42MzktMi40IDE1LjA2OC0yLjMxNSAxMS4xMDguMTE4IDIwLjI4NCA0LjQwMSAyNi41MzQgMTIuMzg4IDIuOTU3IDMuNzc5IDIuOTY0IDEyLjQ4NS4wMTkgMjMuODg3LTMuMDAyIDExLjYyNS04LjY1MSAyNC4xMTgtMTUuNDk3IDM0LjI3Ny0uMzA2LjQ1Ny0uODEuNzAzLTEuMzIzLjcwM3ptLjc2IDEwLjIxYy0yLjUzOCAwLTQuODEzLS4zNTgtNi4xNzUtMS4xNzQtMS40LS44MzktMS42NjctMS45NzktMS43MDItMi41ODQtLjM4Mi02LjcxIDMuMzItNy44NzggNS4yMDgtOC40MTEtLjI2My0uMzk4LS42MzctLjg2Ni0xLjAyNC0xLjM0OS0xLjEwMS0xLjM3Ni0yLjYwOS0zLjI2LTMuNzcxLTYuMDc4LS4xODItLjQ0LS43NTItMS40NjMtMS40MTItMi42NDgtMy41NzktNi40MTgtMTEuMDI2LTE5Ljc3My02LjI0Mi0yNi42MTIgMi4yMTQtMy4xNjUgNi42MjMtNC40MTEgMTMuMTE5LTMuNzE2Qzk3LjYgMjguODM3IDg4LjUgMTAuNjI1IDY2LjkwNyAxMC4yNzFjLTYuNDk0LS4xMDgtMTEuODIgMS44ODktMTUuODIyIDUuOTMtOC45NiA5LjA0OS04LjYzNiAyNS40MjItOC42MzEgMjUuNTg2YTEuNTk1IDEuNTk1IDAgMTEtMy4xOS4wODRjLS4wMi0uNzI3LS4zNTQtMTcuOTA5IDkuNTU0LTI3LjkxNkM1My40NTUgOS4yNzIgNTkuNTU5IDYuOTYgNjYuOTYgNy4wODFjMTMuODE0LjIyNyAyMi43MDYgNy4yNSAyNy43MzIgMTMuMTAxIDUuNDc5IDYuMzc3IDguMTY1IDEzLjQxMSA4LjM4NiAxNS43NTkuMTY1IDEuNzQ2LTEuMDg4IDIuMDk1LTEuMzQxIDIuMTQ3bC0uNTc2LjAxM2MtNi4zNzUtMS4wMjEtMTAuNDY1LS4zMTItMTIuMTU2IDIuMTA0LTMuNjM5IDUuMjAxIDMuNDA2IDE3LjgzNCA2LjQxNCAyMy4yMjkuNzY4IDEuMzc2IDEuMzIyIDIuMzcxIDEuNTc2IDIuOTg1Ljk4OCAyLjM5NiAyLjI3NyA0LjAwNiAzLjMxMiA1LjMuOTExIDEuMTM4IDEuNyAyLjEyNSAxLjk4MiAzLjI4My4xMzEuMjMgMS45OSAyLjk4IDEzLjAyMS43MDMgMi43NjUtLjU3IDQuNDIzLS4wODMgNC45MyAxLjQ1Ljk5NyAzLjAxNS00LjU5NyA2LjUzMi03LjY5NCA3Ljk3LTIuNzc1IDEuMjktNy4yMDQgMi4xMDYtMTEuMDM2IDIuMTA2em0tNC42OTYtNC4wMjFjLjM1LjM1MyAyLjEwMS45NjIgNS43MjcuODA2IDMuMjI0LS4xMzggNi42MjQtLjgzOSA4LjY2NC0xLjc4NiAyLjYwOS0xLjIxMiA0LjM1MS0yLjU2NyA1LjI1My0zLjQ5MmwtLjUuMDkyYy03LjA1MyAxLjQ1Ni0xMi4wNDIgMS4yNjItMTQuODI4LS41NzdhNi4xNjIgNi4xNjIgMCAwMS0uNTQtLjQwMWMtLjMwMi4xMTktLjU4MS4xOTctLjc4LjI1My0xLjU4LjQ0My0zLjIxNC45MDItMi45OTYgNS4xMDV6bS00NS41NjIgOC45MTVjLTEuNzUyIDAtMy41OTYtLjIzOS01LjQ3OS0uNzEtMS45NTEtLjQ4OC01LjI0LTEuOTU3LTUuMTktNC4zNy4wNTctMi43MDcgMy45OTQtMy41MTkgNS40NzYtMy44MjQgNS4zNTQtMS4xMDMgNS43MDMtMS41NDUgNy4zNzYtMy42Ny40ODgtLjYxOSAxLjA5NS0xLjM5IDEuOTIzLTIuMzE0IDEuMjI5LTEuMzc2IDIuNTcyLTIuMDczIDMuOTkyLTIuMDczLjk4OSAwIDEuOC4zMzUgMi4zMzYuNTU4IDEuNzA4LjcwOCAzLjEzMyAyLjQyIDMuNzE5IDQuNDY3LjUyOSAxLjg0Ny4yNzYgMy42MjUtLjcxIDUuMDA2LTMuMjM3IDQuNTMzLTcuODg2IDYuOTMtMTMuNDQzIDYuOTN6bS03LjIyMi00Ljk0M2MuNDgxLjM3MiAxLjQ0NS44NjkgMi41MTggMS4xMzcgMS42MzEuNDA4IDMuMjEzLjYxNSA0LjcwNS42MTUgNC41NDYgMCA4LjE5Ni0xLjg4MiAxMC44NDctNS41OTQuNTUzLS43NzQuMzg3LTEuNzU3LjIzOS0yLjI3NC0uMzEtMS4wODMtMS4wOC0yLjA2OC0xLjg3My0yLjM5Ny0uNDMtLjE3OC0uNzg3LS4zMTQtMS4xMTUtLjMxNC0uMTc2IDAtLjcxMiAwLTEuNjE0IDEuMDA5YTQxLjE0NiA0MS4xNDYgMCAwMC0xLjc5NCAyLjE2MmMtMi4wODQgMi42NDYtMy4wMzkgMy41NDQtOS4yMzkgNC44MjEtMS41MTMuMzEtMi4yODkuNjI2LTIuNjc0LjgzNXptMTIuMjY5LTcuMzZhMS41OTYgMS41OTYgMCAwMS0xLjU3NS0xLjM1NCA4LjIxOCA4LjIxOCAwIDAxLS4wOC0uNzk5Yy00LjA2NC0uMDc2LTcuOTg1LTEuODItMTAuOTYyLTQuOTI2LTMuNzY0LTMuOTI3LTUuNDc3LTkuMzY4LTQuNjk5LTE0LjkyNy44NDUtNi4wMzcuNTI5LTExLjM2Ni4zNTktMTQuMjI5LS4wNDctLjc5Ni0uMDgxLTEuMzcxLS4wNzktMS43NjkuMDAzLS41MDUuMDEzLTEuODQ0IDQuNDg5LTQuMTEzIDEuNTkyLS44MDcgNC43ODQtMi4yMTUgOC4yNzEtMi41NzYgNS43NzctLjU5NyA5LjU4NSAxLjk3NiAxMC43MjUgNy4yNDYgMy4wNzcgMTQuMjI4LjI0NCAyMC41MjEtMS44MjUgMjUuMTE3LS4zODUuODU2LS43NDkgMS42NjQtMS4wNCAyLjQ0N2wtLjI1Ny42OWMtMS4wOTMgMi45MzEtMi4wMzggNS40NjMtMS43NDggNy4zNTRhMS41OTUgMS41OTUgMCAwMS0xLjMzNSAxLjgxOWwtLjI0NC4wMnpNNDIuNDY0IDQyLjI2bC4wNjIgMS4xMzljLjE3NiAyLjk3NC41MDQgOC41MDgtLjM4NCAxNC44Ni0uNjQxIDQuNTg1Ljc1OSA5LjA2IDMuODQzIDEyLjI3NiAyLjQzNyAyLjU0MiA1LjY0NCAzLjk0NSA4Ljk0IDMuOTQ1aC4wNjhjLjM2OS0xLjU1NS45ODItMy4xOTcgMS42NDItNC45NjZsLjI1NS0uNjg2Yy4zMjktLjg4NC43MTQtMS43NCAxLjEyMi0yLjY0NiAxLjk5MS00LjQyNCA0LjQ3LTkuOTMxIDEuNjE1LTIzLjEzMi0uNTY1LTIuNjE1LTEuOTM2LTQuMTI4LTQuMTg5LTQuNjI3LTQuNjI4LTEuMDIyLTExLjUyNSAyLjQ1OS0xMi45NzQgMy44Mzd6bTkuNjMtLjY3N2MtLjA4LjU2NCAxLjAzMyAyLjA3IDIuNDg1IDIuMjcxIDEuNDQ5LjIwMyAyLjY4OS0uOTc1IDIuNzY4LTEuNTM5LjA3OS0uNTY0LTEuMDMzLTEuMTg2LTIuNDg1LTEuMzg4LTEuNDUxLS4yMDItMi42OTEuMDkyLTIuNzY4LjY1NnptMi44MTggMi44MjZsLS40MDctLjAyOGMtLjktLjEyNS0xLjgxLS42OTItMi40MzMtMS41MTgtLjIxOS0uMjktLjU3Ni0uODUyLS41MDUtMS4zNTQuMTAxLS43MzYuOTk5LTEuMTc3IDIuNC0xLjE3Ny4zMTMgMCAuNjM5LjAyMy45NjcuMDY5Ljc2Ni4xMDYgMS40NzcuMzI3IDIuMDAyLjYyLjkxLjUwOC45NzcgMS4wNzUuOTM2IDEuMzY4LS4xMTIuODEzLTEuNDA1IDIuMDItMi45NiAyLjAyem0tMi4yODktMi43MzJjLjA0NS4zNDguOTA3IDEuNDk2IDIuMDI5IDEuNjUxbC4yNjEuMDE4YzEuMDM2IDAgMS44MS0uODE1IDEuOTAxLTEuMDgyLS4wOTYtLjE4Mi0uNzYyLS42MzQtMi4wMjUtLjgxYTUuODIzIDUuODIzIDAgMDAtLjgyMS0uMDU5Yy0uODEyIDAtMS4yNDMuMTgzLTEuMzQ1LjI4MnptNDMuNjA1LTEuMjQ1Yy4wNzkuNTY0LTEuMDMzIDIuMDctMi40ODQgMi4yNzItMS40NS4yMDItMi42OTEtLjk3NS0yLjc3MS0xLjUzOS0uMDc2LS41NjQgMS4wMzYtMS4xODcgMi40ODYtMS4zODggMS40NS0uMjAzIDIuNjg5LjA5MiAyLjc2OS42NTV6bS0yLjgxOSAyLjU2Yy0xLjM5NiAwLTIuNjAxLTEuMDg2LTIuNy0xLjc5MS0uMTE1LS44NDYgMS4yNzgtMS40ODkgMi43MTItMS42ODguMzE2LS4wNDQuNjI5LS4wNjYuOTMtLjA2NiAxLjIzOCAwIDIuMDU4LjM2MyAyLjE0Ljk0OS4wNTMuMzc5LS4yMzguOTY0LS43MzkgMS40OTItLjMzMS4zNDctMS4wMjYuOTQ4LTEuOTczIDEuMDc5bC0uMzcuMDI1em0uOTQzLTMuMDEzYy0uMjc2IDAtLjU2NC4wMjEtLjg1Ni4wNjEtMS40NDEuMjAxLTIuMzAxLjc3OS0yLjI1OSAxLjA4OS4wNDguMzQxLjk2OCAxLjMzMiAyLjE3MyAxLjMzMmwuMjk3LS4wMjFjLjc4Ny0uMTA5IDEuMzc4LS42MjMgMS42Ni0uOTE5LjQ0My0uNDY1LjYxOS0uOTAzLjU5OC0xLjA1Mi0uMDI4LS4xOTgtLjU2LS40OS0xLjYxMy0uNDl6bTMuOTY1IDMyLjg0M2ExLjU5NCAxLjU5NCAwIDAxLTEuMzI0LTIuNDgzYzMuMzk4LTUuMDc1IDIuNzc2LTEwLjI1IDIuMTc1LTE1LjI1NS0uMjU3LTIuMTMyLS41MjEtNC4zMzctLjQ1My02LjQ1My4wNy0yLjE3Ny4zNDctMy45NzMuNjE0LTUuNzEuMzE3LTIuMDU4LjYxNy00LjAwMi40OTMtNi4zMWExLjU5NSAxLjU5NSAwIDExMy4xODYtLjE3MmMuMTQyIDIuNjM4LS4xOTcgNC44MzgtLjUyNSA2Ljk2Ny0uMjUzIDEuNjQzLS41MTUgMy4zNDItLjU3OCA1LjMyNy0uMDYxIDEuODc0LjE3OCAzLjg2NC40MzEgNS45Ny42NCA1LjMyMiAxLjM2NSAxMS4zNTQtMi42OTEgMTcuNDExYTEuNTk2IDEuNTk2IDAgMDEtMS4zMjguNzA4eiIgZmlsbD0iI2ZmZiIvPjwvc3ZnPg==;" vertex="1" parent="1">
          <mxGeometry x="546" y="350" width="40" height="40" as="geometry" />
        </mxCell>
      </root>
    </mxGraphModel>
  </diagram>
</mxfile>
